<?xml version="1.0" encoding="iso-8859-1"?>
<!-- Generator: Adobe Illustrator 19.0.0, SVG Export Plug-In . SVG Version: 6.00 Build 0)  -->
<svg
	version="1.1"
	id="Capa_1"
	xmlns="http://www.w3.org/2000/svg"
	xmlns:xlink="http://www.w3.org/1999/xlink"
	x="0px"
	y="0px"
	viewBox="0 0 334.144 334.144"
	style="enable-background: new 0 0 334.144 334.144"
	xml:space="preserve"
>
	<g>
		<g>
			<path
				d="M73.936,11.712c-15.616-15.616-40.944-15.616-56.576,0c-15.616,15.616-15.616,40.944,0,56.576
			c9.216,9.216,21.824,12.848,33.808,11.184l62.352,62.352l45.264-45.264L73.936,11.712z M45.648,51.856c-6.624,0-12-5.376-12-12
			c0-6.624,5.376-12,12-12c6.624,0,12,5.376,12,12C57.648,46.48,52.272,51.856,45.648,51.856z"
			/>
		</g>
	</g>
	<g>
		<g>
			<path
				d="M305.872,243.632l-135.776-135.76l-56.704,56.704c46.72,46.384,116.8,93.632,182.288,124.016l1.488,18.192
			c-69.536-31.056-145.232-81.392-195.088-130.896l-11.168,11.184C147.84,244,244.672,306.32,328.496,334.144v-30.896
			C328.496,276.864,322.08,259.84,305.872,243.632z"
			/>
		</g>
	</g>
</svg>
